<mxfile host="65bd71144e">
    <diagram name="AI Job Agent Architecture" id="AIJobAgentArch1">
        <mxGraphModel dx="752" dy="832" grid="1" gridSize="10" guides="1" tooltips="1" connect="1" arrows="1" fold="1" page="1" pageScale="1" pageWidth="827" pageHeight="1169" math="0" shadow="0">
            <root>
                <mxCell id="0"/>
                <mxCell id="1" parent="0"/>
                <mxCell id="2" value="User Interface (Frontend)" style="rounded=1;whiteSpace=wrap;html=1;fillColor=#dae8fc;strokeColor=#6c8ebf;" parent="1" vertex="1">
                    <mxGeometry x="60" y="120" width="180" height="60" as="geometry"/>
                </mxCell>
                <mxCell id="3" value="API Gateway (Controller Layer)" style="rounded=1;whiteSpace=wrap;html=1;fillColor=#e1d5e7;strokeColor=#9673a6;" parent="1" vertex="1">
                    <mxGeometry x="300" y="120" width="220" height="60" as="geometry"/>
                </mxCell>
                <mxCell id="4" value="Intent Detection (IntentDetectionService)" style="rounded=1;whiteSpace=wrap;html=1;fillColor=#fff2cc;strokeColor=#d6b656;" parent="1" vertex="1">
                    <mxGeometry x="580" y="60" width="240" height="60" as="geometry"/>
                </mxCell>
                <mxCell id="30" style="edgeStyle=none;html=1;exitX=0.75;exitY=1;exitDx=0;exitDy=0;entryX=0.75;entryY=0;entryDx=0;entryDy=0;fillColor=#fff2cc;strokeColor=#d6b656;" parent="1" source="5" target="25" edge="1">
                    <mxGeometry relative="1" as="geometry"/>
                </mxCell>
                <mxCell id="5" value="AI Services" style="swimlane;whiteSpace=wrap;html=1;fillColor=#d5e8d4;strokeColor=#82b366;" parent="1" vertex="1">
                    <mxGeometry x="460" y="230" width="180" height="250" as="geometry"/>
                </mxCell>
                <mxCell id="6" value="ResumeAdviceService" style="rounded=1;whiteSpace=wrap;html=1;fillColor=#ffffff;strokeColor=#82b366;" parent="5" vertex="1">
                    <mxGeometry x="20" y="40" width="140" height="40" as="geometry"/>
                </mxCell>
                <mxCell id="7" value="JobAnalyzeDetailService" style="rounded=1;whiteSpace=wrap;html=1;fillColor=#ffffff;strokeColor=#82b366;" parent="5" vertex="1">
                    <mxGeometry x="20" y="140" width="140" height="40" as="geometry"/>
                </mxCell>
                <mxCell id="8" value="GeneralService" style="rounded=1;whiteSpace=wrap;html=1;fillColor=#ffffff;strokeColor=#82b366;" parent="5" vertex="1">
                    <mxGeometry x="20" y="190" width="140" height="40" as="geometry"/>
                </mxCell>
                <mxCell id="32" value="ModifyCVServiceAI" style="rounded=1;whiteSpace=wrap;html=1;fillColor=#ffffff;strokeColor=#82b366;" parent="5" vertex="1">
                    <mxGeometry x="20" y="90" width="140" height="40" as="geometry"/>
                </mxCell>
                <mxCell id="33" style="edgeStyle=none;html=1;exitX=0.5;exitY=0;exitDx=0;exitDy=0;entryX=0.5;entryY=1;entryDx=0;entryDy=0;fillColor=#ffffff;strokeColor=#82b366;" parent="5" source="32" target="6" edge="1">
                    <mxGeometry relative="1" as="geometry"/>
                </mxCell>
                <mxCell id="9" value="InterviewServiceAI" style="rounded=1;whiteSpace=wrap;html=1;fillColor=#ffffff;strokeColor=#82b366;" parent="1" vertex="1">
                    <mxGeometry x="190" y="340" width="180" height="60" as="geometry"/>
                </mxCell>
                <mxCell id="20" value="JobSearchedService" style="rounded=1;whiteSpace=wrap;html=1;fillColor=#ffe6cc;strokeColor=#d79b00;" parent="1" vertex="1">
                    <mxGeometry x="980" y="390" width="180" height="60" as="geometry"/>
                </mxCell>
                <mxCell id="21" value="SearchJobsAPIService (External Job API)" style="rounded=1;whiteSpace=wrap;html=1;fillColor=#f5f5f5;strokeColor=#666666;dashed=1;" parent="1" vertex="1">
                    <mxGeometry x="1010" y="260" width="220" height="60" as="geometry"/>
                </mxCell>
                <mxCell id="10" value="Database (User, Job, Interview, Conversation etc.)" style="ellipse;whiteSpace=wrap;html=1;fillColor=#f8cecc;strokeColor=#b85450;" parent="1" vertex="1">
                    <mxGeometry x="760" y="430" width="180" height="80" as="geometry"/>
                </mxCell>
                <mxCell id="11" value="External LLM Provider (Azure OpenAI)" style="rounded=1;whiteSpace=wrap;html=1;fillColor=#b7e1cd;strokeColor=#388e3c;" parent="1" vertex="1">
                    <mxGeometry x="750" y="160" width="220" height="60" as="geometry"/>
                </mxCell>
                <mxCell id="12" style="edgeStyle=orthogonalEdgeStyle;rounded=0;orthogonalLoop=1;jettySize=auto;html=1;endArrow=block;endFill=1;strokeColor=#6c8ebf;" parent="1" source="2" target="3" edge="1">
                    <mxGeometry relative="1" as="geometry"/>
                </mxCell>
                <mxCell id="13" style="edgeStyle=orthogonalEdgeStyle;rounded=0;orthogonalLoop=1;jettySize=auto;html=1;endArrow=block;endFill=1;strokeColor=#9673a6;" parent="1" source="3" target="4" edge="1">
                    <mxGeometry relative="1" as="geometry"/>
                </mxCell>
                <mxCell id="14" style="edgeStyle=orthogonalEdgeStyle;rounded=0;orthogonalLoop=1;jettySize=auto;html=1;endArrow=block;endFill=1;strokeColor=#d6b656;" parent="1" source="4" target="5" edge="1">
                    <mxGeometry relative="1" as="geometry"/>
                </mxCell>
                <mxCell id="15" style="edgeStyle=orthogonalEdgeStyle;rounded=0;orthogonalLoop=1;jettySize=auto;html=1;endArrow=block;endFill=1;strokeColor=#b85450;" parent="1" source="5" target="10" edge="1">
                    <mxGeometry relative="1" as="geometry"/>
                </mxCell>
                <mxCell id="16" style="edgeStyle=orthogonalEdgeStyle;rounded=0;orthogonalLoop=1;jettySize=auto;html=1;endArrow=block;endFill=1;strokeColor=#388e3c;" parent="1" source="5" target="11" edge="1">
                    <mxGeometry relative="1" as="geometry"/>
                </mxCell>
                <mxCell id="17" style="edgeStyle=orthogonalEdgeStyle;rounded=0;orthogonalLoop=1;jettySize=auto;html=1;endArrow=block;endFill=1;strokeColor=#6c8ebf;" parent="1" source="5" target="3" edge="1">
                    <mxGeometry relative="1" as="geometry"/>
                </mxCell>
                <mxCell id="18" style="edgeStyle=orthogonalEdgeStyle;rounded=0;orthogonalLoop=1;jettySize=auto;html=1;endArrow=block;endFill=1;strokeColor=#6c8ebf;dashed=1;" parent="1" source="3" target="2" edge="1">
                    <mxGeometry relative="1" as="geometry"/>
                </mxCell>
                <mxCell id="22" style="edgeStyle=orthogonalEdgeStyle;rounded=0;orthogonalLoop=1;jettySize=auto;html=1;endArrow=block;endFill=1;strokeColor=#9673a6;" parent="1" source="3" target="9" edge="1">
                    <mxGeometry relative="1" as="geometry"/>
                </mxCell>
                <mxCell id="23" style="edgeStyle=orthogonalEdgeStyle;rounded=0;orthogonalLoop=1;jettySize=auto;html=1;endArrow=block;endFill=1;strokeColor=#d79b00;" parent="1" source="20" target="10" edge="1">
                    <mxGeometry relative="1" as="geometry"/>
                </mxCell>
                <mxCell id="24" style="edgeStyle=orthogonalEdgeStyle;rounded=0;orthogonalLoop=1;jettySize=auto;html=1;endArrow=block;endFill=1;strokeColor=#666666;dashed=1;" parent="1" source="21" target="20" edge="1">
                    <mxGeometry relative="1" as="geometry"/>
                </mxCell>
                <mxCell id="28" style="edgeStyle=none;html=1;exitX=1;exitY=0.5;exitDx=0;exitDy=0;fillColor=#ffe6cc;strokeColor=#d79b00;" parent="1" source="25" target="10" edge="1">
                    <mxGeometry relative="1" as="geometry">
                        <Array as="points">
                            <mxPoint x="680" y="540"/>
                            <mxPoint x="680" y="470"/>
                        </Array>
                    </mxGeometry>
                </mxCell>
                <mxCell id="31" style="edgeStyle=none;html=1;exitX=0.25;exitY=0;exitDx=0;exitDy=0;fillColor=#dae8fc;strokeColor=#6c8ebf;" parent="1" source="25" edge="1">
                    <mxGeometry relative="1" as="geometry">
                        <mxPoint x="525" y="480" as="targetPoint"/>
                    </mxGeometry>
                </mxCell>
                <mxCell id="25" value="SummaryService" style="rounded=1;whiteSpace=wrap;html=1;fillColor=#ffffff;strokeColor=#82b366;" parent="1" vertex="1">
                    <mxGeometry x="490" y="520" width="140" height="40" as="geometry"/>
                </mxCell>
            </root>
        </mxGraphModel>
    </diagram>
</mxfile>